<mxfile host="app.diagrams.net" agent="Mozilla/5.0 (Windows NT 10.0; Win64; x64) AppleWebKit/537.36 (KHTML, like Gecko) Chrome/127.0.0.0 Safari/537.36" version="24.7.7">
  <diagram name="Page-1" id="63raa4CfM9r3-4NKZ3pB">
    <mxGraphModel dx="1050" dy="563" grid="1" gridSize="10" guides="1" tooltips="1" connect="1" arrows="1" fold="1" page="1" pageScale="1" pageWidth="850" pageHeight="1100" background="none" math="0" shadow="0">
      <root>
        <mxCell id="0" />
        <mxCell id="1" parent="0" />
        <mxCell id="3DVO_8HRLt8EHdKaGCYj-1" value="&lt;font style=&quot;font-size: 12px;&quot;&gt;Start&lt;/font&gt;" style="ellipse;whiteSpace=wrap;html=1;rounded=0;" vertex="1" parent="1">
          <mxGeometry x="400" y="60" width="80" height="50" as="geometry" />
        </mxCell>
        <mxCell id="3DVO_8HRLt8EHdKaGCYj-2" value="" style="endArrow=classic;html=1;rounded=1;curved=0;" edge="1" parent="1" target="3DVO_8HRLt8EHdKaGCYj-5">
          <mxGeometry width="50" height="50" relative="1" as="geometry">
            <mxPoint x="440" y="110" as="sourcePoint" />
            <mxPoint x="340" y="160" as="targetPoint" />
          </mxGeometry>
        </mxCell>
        <mxCell id="3DVO_8HRLt8EHdKaGCYj-12" value="" style="edgeStyle=orthogonalEdgeStyle;rounded=0;orthogonalLoop=1;jettySize=auto;html=1;" edge="1" parent="1" source="3DVO_8HRLt8EHdKaGCYj-5" target="3DVO_8HRLt8EHdKaGCYj-11">
          <mxGeometry relative="1" as="geometry" />
        </mxCell>
        <mxCell id="3DVO_8HRLt8EHdKaGCYj-5" value="&amp;nbsp;New&amp;nbsp;&lt;div&gt;User&lt;/div&gt;" style="rhombus;whiteSpace=wrap;html=1;rounded=0;" vertex="1" parent="1">
          <mxGeometry x="400" y="160" width="80" height="80" as="geometry" />
        </mxCell>
        <mxCell id="3DVO_8HRLt8EHdKaGCYj-7" value="" style="endArrow=classic;html=1;rounded=0;exitX=0.5;exitY=1;exitDx=0;exitDy=0;entryX=-0.008;entryY=0.98;entryDx=0;entryDy=0;entryPerimeter=0;" edge="1" parent="1" source="3DVO_8HRLt8EHdKaGCYj-5" target="3DVO_8HRLt8EHdKaGCYj-8">
          <mxGeometry width="50" height="50" relative="1" as="geometry">
            <mxPoint x="400" y="200" as="sourcePoint" />
            <mxPoint x="330" y="200" as="targetPoint" />
          </mxGeometry>
        </mxCell>
        <mxCell id="3DVO_8HRLt8EHdKaGCYj-8" value="No" style="text;html=1;align=center;verticalAlign=middle;resizable=0;points=[];autosize=1;strokeColor=none;fillColor=none;rounded=0;" vertex="1" parent="1">
          <mxGeometry x="440" y="250" width="40" height="30" as="geometry" />
        </mxCell>
        <mxCell id="3DVO_8HRLt8EHdKaGCYj-18" style="edgeStyle=orthogonalEdgeStyle;rounded=1;orthogonalLoop=1;jettySize=auto;html=1;exitX=1;exitY=0.5;exitDx=0;exitDy=0;curved=0;" edge="1" parent="1" source="3DVO_8HRLt8EHdKaGCYj-11">
          <mxGeometry relative="1" as="geometry">
            <mxPoint x="710" y="230" as="targetPoint" />
          </mxGeometry>
        </mxCell>
        <mxCell id="3DVO_8HRLt8EHdKaGCYj-11" value="User Registration" style="whiteSpace=wrap;html=1;fixDash=0;perimeter=rectanglePerimeter;rounded=0;" vertex="1" parent="1">
          <mxGeometry x="540" y="170" width="120" height="60" as="geometry" />
        </mxCell>
        <mxCell id="3DVO_8HRLt8EHdKaGCYj-13" value="Yes" style="text;html=1;align=center;verticalAlign=middle;resizable=0;points=[];autosize=1;strokeColor=none;fillColor=none;rounded=0;" vertex="1" parent="1">
          <mxGeometry x="490" y="170" width="40" height="30" as="geometry" />
        </mxCell>
        <mxCell id="3DVO_8HRLt8EHdKaGCYj-21" value="User Info Stored" style="shape=cylinder3;whiteSpace=wrap;html=1;boundedLbl=1;backgroundOutline=1;size=15;rounded=0;" vertex="1" parent="1">
          <mxGeometry x="710" y="180" width="100" height="70" as="geometry" />
        </mxCell>
        <mxCell id="3DVO_8HRLt8EHdKaGCYj-26" style="edgeStyle=orthogonalEdgeStyle;rounded=0;orthogonalLoop=1;jettySize=auto;html=1;exitX=0;exitY=0.5;exitDx=0;exitDy=0;entryX=1.012;entryY=0.603;entryDx=0;entryDy=0;entryPerimeter=0;" edge="1" parent="1" source="3DVO_8HRLt8EHdKaGCYj-22">
          <mxGeometry relative="1" as="geometry">
            <mxPoint x="291.55999999999995" y="300.21000000000004" as="targetPoint" />
          </mxGeometry>
        </mxCell>
        <mxCell id="3DVO_8HRLt8EHdKaGCYj-22" value="User Login" style="rounded=0;whiteSpace=wrap;html=1;" vertex="1" parent="1">
          <mxGeometry x="390" y="280" width="100" height="40" as="geometry" />
        </mxCell>
        <mxCell id="3DVO_8HRLt8EHdKaGCYj-23" style="edgeStyle=orthogonalEdgeStyle;rounded=1;orthogonalLoop=1;jettySize=auto;html=1;exitX=1;exitY=0.5;exitDx=0;exitDy=0;entryX=0.5;entryY=1;entryDx=0;entryDy=0;entryPerimeter=0;curved=0;" edge="1" parent="1" source="3DVO_8HRLt8EHdKaGCYj-22" target="3DVO_8HRLt8EHdKaGCYj-21">
          <mxGeometry relative="1" as="geometry">
            <mxPoint x="760" y="260" as="targetPoint" />
          </mxGeometry>
        </mxCell>
        <mxCell id="3DVO_8HRLt8EHdKaGCYj-24" value="Authentication" style="text;html=1;align=center;verticalAlign=middle;resizable=0;points=[];autosize=1;strokeColor=none;fillColor=none;rounded=0;" vertex="1" parent="1">
          <mxGeometry x="560" y="268" width="100" height="30" as="geometry" />
        </mxCell>
        <mxCell id="3DVO_8HRLt8EHdKaGCYj-25" value="Credentials fetched&amp;nbsp;" style="text;html=1;align=center;verticalAlign=middle;resizable=0;points=[];autosize=1;strokeColor=none;fillColor=none;rounded=0;" vertex="1" parent="1">
          <mxGeometry x="555" y="298" width="130" height="30" as="geometry" />
        </mxCell>
        <mxCell id="3DVO_8HRLt8EHdKaGCYj-28" value="Verification" style="text;html=1;align=center;verticalAlign=middle;resizable=0;points=[];autosize=1;strokeColor=none;fillColor=none;rounded=0;" vertex="1" parent="1">
          <mxGeometry x="300" y="268" width="80" height="30" as="geometry" />
        </mxCell>
        <mxCell id="3DVO_8HRLt8EHdKaGCYj-29" value="Success" style="text;html=1;align=center;verticalAlign=middle;resizable=0;points=[];autosize=1;strokeColor=none;fillColor=none;rounded=0;" vertex="1" parent="1">
          <mxGeometry x="305" y="298" width="70" height="30" as="geometry" />
        </mxCell>
        <mxCell id="3DVO_8HRLt8EHdKaGCYj-36" style="edgeStyle=orthogonalEdgeStyle;orthogonalLoop=1;jettySize=auto;html=1;exitX=0.5;exitY=1;exitDx=0;exitDy=0;endArrow=none;endFill=0;" edge="1" parent="1" source="3DVO_8HRLt8EHdKaGCYj-31">
          <mxGeometry relative="1" as="geometry">
            <mxPoint x="225" y="480" as="targetPoint" />
            <Array as="points">
              <mxPoint x="220" y="480" />
            </Array>
          </mxGeometry>
        </mxCell>
        <mxCell id="3DVO_8HRLt8EHdKaGCYj-31" value="Choose Search&lt;div&gt;Criteria&lt;/div&gt;&lt;div&gt;(Flights, Tours, Hotels&lt;/div&gt;" style="shape=parallelogram;perimeter=parallelogramPerimeter;whiteSpace=wrap;html=1;fixedSize=1;" vertex="1" parent="1">
          <mxGeometry x="140" y="260" width="160" height="70" as="geometry" />
        </mxCell>
        <mxCell id="3DVO_8HRLt8EHdKaGCYj-39" value="" style="endArrow=classic;html=1;" edge="1" parent="1">
          <mxGeometry width="50" height="50" relative="1" as="geometry">
            <mxPoint x="220" y="390" as="sourcePoint" />
            <mxPoint x="305" y="390" as="targetPoint" />
          </mxGeometry>
        </mxCell>
        <mxCell id="3DVO_8HRLt8EHdKaGCYj-40" value="" style="endArrow=classic;html=1;" edge="1" parent="1">
          <mxGeometry width="50" height="50" relative="1" as="geometry">
            <mxPoint x="225" y="479.5" as="sourcePoint" />
            <mxPoint x="305" y="479.5" as="targetPoint" />
          </mxGeometry>
        </mxCell>
        <mxCell id="3DVO_8HRLt8EHdKaGCYj-51" style="edgeStyle=orthogonalEdgeStyle;orthogonalLoop=1;jettySize=auto;html=1;exitX=1;exitY=0.5;exitDx=0;exitDy=0;entryX=0;entryY=0.75;entryDx=0;entryDy=0;rounded=1;curved=0;" edge="1" parent="1" source="3DVO_8HRLt8EHdKaGCYj-41" target="3DVO_8HRLt8EHdKaGCYj-48">
          <mxGeometry relative="1" as="geometry" />
        </mxCell>
        <mxCell id="3DVO_8HRLt8EHdKaGCYj-41" value="Process Search&lt;div&gt;Query&lt;/div&gt;" style="rounded=0;whiteSpace=wrap;html=1;" vertex="1" parent="1">
          <mxGeometry x="305" y="360" width="125" height="50" as="geometry" />
        </mxCell>
        <mxCell id="3DVO_8HRLt8EHdKaGCYj-52" style="edgeStyle=orthogonalEdgeStyle;orthogonalLoop=1;jettySize=auto;html=1;exitX=0.5;exitY=0;exitDx=0;exitDy=0;entryX=0.5;entryY=1;entryDx=0;entryDy=0;" edge="1" parent="1" source="3DVO_8HRLt8EHdKaGCYj-42" target="3DVO_8HRLt8EHdKaGCYj-41">
          <mxGeometry relative="1" as="geometry" />
        </mxCell>
        <mxCell id="3DVO_8HRLt8EHdKaGCYj-53" style="edgeStyle=orthogonalEdgeStyle;orthogonalLoop=1;jettySize=auto;html=1;exitX=0.5;exitY=1;exitDx=0;exitDy=0;" edge="1" parent="1" source="3DVO_8HRLt8EHdKaGCYj-42" target="3DVO_8HRLt8EHdKaGCYj-54">
          <mxGeometry relative="1" as="geometry">
            <mxPoint x="200" y="540" as="targetPoint" />
          </mxGeometry>
        </mxCell>
        <mxCell id="3DVO_8HRLt8EHdKaGCYj-42" value="Fetch Travel Data" style="rounded=0;whiteSpace=wrap;html=1;" vertex="1" parent="1">
          <mxGeometry x="305" y="450" width="125" height="50" as="geometry" />
        </mxCell>
        <mxCell id="3DVO_8HRLt8EHdKaGCYj-56" style="edgeStyle=orthogonalEdgeStyle;orthogonalLoop=1;jettySize=auto;html=1;exitX=0.5;exitY=1;exitDx=0;exitDy=0;" edge="1" parent="1" source="3DVO_8HRLt8EHdKaGCYj-48" target="3DVO_8HRLt8EHdKaGCYj-57">
          <mxGeometry relative="1" as="geometry">
            <mxPoint x="575" y="500" as="targetPoint" />
          </mxGeometry>
        </mxCell>
        <mxCell id="3DVO_8HRLt8EHdKaGCYj-48" value="Display Seach&lt;br&gt;Data" style="shape=parallelogram;perimeter=parallelogramPerimeter;whiteSpace=wrap;html=1;fixedSize=1;" vertex="1" parent="1">
          <mxGeometry x="500" y="390" width="150" height="60" as="geometry" />
        </mxCell>
        <mxCell id="3DVO_8HRLt8EHdKaGCYj-54" value="Scraped Info Pushed" style="shape=cylinder3;whiteSpace=wrap;html=1;boundedLbl=1;backgroundOutline=1;size=15;" vertex="1" parent="1">
          <mxGeometry x="140" y="540" width="90" height="80" as="geometry" />
        </mxCell>
        <mxCell id="3DVO_8HRLt8EHdKaGCYj-59" style="edgeStyle=orthogonalEdgeStyle;orthogonalLoop=1;jettySize=auto;html=1;exitX=1;exitY=0.5;exitDx=0;exitDy=0;" edge="1" parent="1" source="3DVO_8HRLt8EHdKaGCYj-57" target="3DVO_8HRLt8EHdKaGCYj-48">
          <mxGeometry relative="1" as="geometry">
            <mxPoint x="760" y="440" as="targetPoint" />
            <Array as="points">
              <mxPoint x="730" y="560" />
              <mxPoint x="730" y="420" />
            </Array>
          </mxGeometry>
        </mxCell>
        <mxCell id="3DVO_8HRLt8EHdKaGCYj-63" style="edgeStyle=orthogonalEdgeStyle;orthogonalLoop=1;jettySize=auto;html=1;exitX=0.5;exitY=1;exitDx=0;exitDy=0;" edge="1" parent="1" source="3DVO_8HRLt8EHdKaGCYj-57" target="3DVO_8HRLt8EHdKaGCYj-65">
          <mxGeometry relative="1" as="geometry">
            <mxPoint x="575" y="660" as="targetPoint" />
          </mxGeometry>
        </mxCell>
        <mxCell id="3DVO_8HRLt8EHdKaGCYj-57" value="&amp;nbsp; Validate Selection&amp;nbsp;&lt;div&gt;and&amp;nbsp;&amp;nbsp;&lt;/div&gt;&lt;div&gt;Availability&lt;/div&gt;" style="rhombus;whiteSpace=wrap;html=1;" vertex="1" parent="1">
          <mxGeometry x="482.5" y="510" width="185" height="100" as="geometry" />
        </mxCell>
        <mxCell id="3DVO_8HRLt8EHdKaGCYj-62" value="Failed" style="text;html=1;align=center;verticalAlign=middle;resizable=0;points=[];autosize=1;strokeColor=none;fillColor=none;" vertex="1" parent="1">
          <mxGeometry x="720" y="470" width="60" height="30" as="geometry" />
        </mxCell>
        <mxCell id="3DVO_8HRLt8EHdKaGCYj-68" style="edgeStyle=orthogonalEdgeStyle;orthogonalLoop=1;jettySize=auto;html=1;exitX=0;exitY=0.5;exitDx=0;exitDy=0;" edge="1" parent="1" source="3DVO_8HRLt8EHdKaGCYj-65" target="3DVO_8HRLt8EHdKaGCYj-71">
          <mxGeometry relative="1" as="geometry">
            <mxPoint x="450" y="690" as="targetPoint" />
          </mxGeometry>
        </mxCell>
        <mxCell id="3DVO_8HRLt8EHdKaGCYj-65" value="Selection Description&lt;br&gt;And Prices" style="rounded=0;whiteSpace=wrap;html=1;" vertex="1" parent="1">
          <mxGeometry x="510" y="660" width="130" height="60" as="geometry" />
        </mxCell>
        <mxCell id="3DVO_8HRLt8EHdKaGCYj-67" value="Success" style="text;html=1;align=center;verticalAlign=middle;resizable=0;points=[];autosize=1;strokeColor=none;fillColor=none;" vertex="1" parent="1">
          <mxGeometry x="510" y="620" width="70" height="30" as="geometry" />
        </mxCell>
        <mxCell id="3DVO_8HRLt8EHdKaGCYj-71" value="Initiate Payment" style="rounded=0;whiteSpace=wrap;html=1;" vertex="1" parent="1">
          <mxGeometry x="310" y="600" width="130" height="35" as="geometry" />
        </mxCell>
        <mxCell id="3DVO_8HRLt8EHdKaGCYj-73" value="" style="endArrow=classic;html=1;exitX=0.25;exitY=1;exitDx=0;exitDy=0;" edge="1" parent="1" source="3DVO_8HRLt8EHdKaGCYj-71" target="3DVO_8HRLt8EHdKaGCYj-75">
          <mxGeometry width="50" height="50" relative="1" as="geometry">
            <mxPoint x="340" y="640" as="sourcePoint" />
            <mxPoint x="341" y="750" as="targetPoint" />
          </mxGeometry>
        </mxCell>
        <mxCell id="3DVO_8HRLt8EHdKaGCYj-76" style="edgeStyle=orthogonalEdgeStyle;orthogonalLoop=1;jettySize=auto;html=1;entryX=0;entryY=0.5;entryDx=0;entryDy=0;" edge="1" parent="1" source="3DVO_8HRLt8EHdKaGCYj-75" target="3DVO_8HRLt8EHdKaGCYj-71">
          <mxGeometry relative="1" as="geometry">
            <mxPoint x="250" y="660" as="targetPoint" />
            <Array as="points">
              <mxPoint x="260" y="795" />
              <mxPoint x="260" y="618" />
            </Array>
          </mxGeometry>
        </mxCell>
        <mxCell id="3DVO_8HRLt8EHdKaGCYj-78" style="edgeStyle=orthogonalEdgeStyle;orthogonalLoop=1;jettySize=auto;html=1;exitX=1;exitY=0.5;exitDx=0;exitDy=0;" edge="1" parent="1" source="3DVO_8HRLt8EHdKaGCYj-75">
          <mxGeometry relative="1" as="geometry">
            <mxPoint x="500" y="795" as="targetPoint" />
          </mxGeometry>
        </mxCell>
        <mxCell id="3DVO_8HRLt8EHdKaGCYj-75" value="Payment Gateway" style="rhombus;whiteSpace=wrap;html=1;" vertex="1" parent="1">
          <mxGeometry x="292.5" y="750" width="97.5" height="90" as="geometry" />
        </mxCell>
        <mxCell id="3DVO_8HRLt8EHdKaGCYj-77" value="Payment&amp;nbsp;&lt;br&gt;Failed" style="text;html=1;align=center;verticalAlign=middle;resizable=0;points=[];autosize=1;strokeColor=none;fillColor=none;" vertex="1" parent="1">
          <mxGeometry x="190" y="680" width="70" height="40" as="geometry" />
        </mxCell>
        <mxCell id="3DVO_8HRLt8EHdKaGCYj-79" value="Success" style="text;html=1;align=center;verticalAlign=middle;resizable=0;points=[];autosize=1;strokeColor=none;fillColor=none;" vertex="1" parent="1">
          <mxGeometry x="405" y="800" width="70" height="30" as="geometry" />
        </mxCell>
        <mxCell id="3DVO_8HRLt8EHdKaGCYj-81" style="edgeStyle=orthogonalEdgeStyle;orthogonalLoop=1;jettySize=auto;html=1;exitX=1;exitY=0.5;exitDx=0;exitDy=0;" edge="1" parent="1" source="3DVO_8HRLt8EHdKaGCYj-80" target="3DVO_8HRLt8EHdKaGCYj-82">
          <mxGeometry relative="1" as="geometry">
            <mxPoint x="700" y="800" as="targetPoint" />
          </mxGeometry>
        </mxCell>
        <mxCell id="3DVO_8HRLt8EHdKaGCYj-80" value="Confirm&lt;div&gt;Booking&lt;/div&gt;" style="shape=parallelogram;perimeter=parallelogramPerimeter;whiteSpace=wrap;html=1;fixedSize=1;" vertex="1" parent="1">
          <mxGeometry x="490" y="770" width="120" height="60" as="geometry" />
        </mxCell>
        <mxCell id="3DVO_8HRLt8EHdKaGCYj-82" value="Store Booking Data" style="shape=cylinder3;whiteSpace=wrap;html=1;boundedLbl=1;backgroundOutline=1;size=15;" vertex="1" parent="1">
          <mxGeometry x="685" y="750" width="70" height="100" as="geometry" />
        </mxCell>
      </root>
    </mxGraphModel>
  </diagram>
</mxfile>
